<mxfile host="app.diagrams.net" modified="2021-09-08T17:34:12.937Z" agent="5.0 (Windows)" etag="anGm30BchzDvoVxYhddn" version="15.1.2" type="github">
  <diagram id="TCL3aWI0mzoux3vN0PKE" name="Page-1">
    <mxGraphModel dx="1038" dy="536" grid="1" gridSize="10" guides="1" tooltips="1" connect="1" arrows="1" fold="1" page="1" pageScale="1" pageWidth="850" pageHeight="1100" math="0" shadow="0">
      <root>
        <mxCell id="0" />
        <mxCell id="1" parent="0" />
        <mxCell id="Yt4aC9gbm4HXK07xka98-2" value="User" style="shape=umlActor;verticalLabelPosition=bottom;verticalAlign=top;html=1;outlineConnect=0;" vertex="1" parent="1">
          <mxGeometry x="140" y="90" width="30" height="60" as="geometry" />
        </mxCell>
        <mxCell id="Yt4aC9gbm4HXK07xka98-7" value="" style="swimlane;startSize=0;" vertex="1" parent="1">
          <mxGeometry x="250" y="70" width="330" height="420" as="geometry" />
        </mxCell>
        <mxCell id="Yt4aC9gbm4HXK07xka98-8" value="Login" style="ellipse;whiteSpace=wrap;html=1;" vertex="1" parent="Yt4aC9gbm4HXK07xka98-7">
          <mxGeometry x="60" y="50" width="90" height="50" as="geometry" />
        </mxCell>
        <mxCell id="Yt4aC9gbm4HXK07xka98-9" value="Register" style="ellipse;whiteSpace=wrap;html=1;" vertex="1" parent="Yt4aC9gbm4HXK07xka98-7">
          <mxGeometry x="105" y="120" width="90" height="60" as="geometry" />
        </mxCell>
        <mxCell id="Yt4aC9gbm4HXK07xka98-10" value="Trail Attempt" style="ellipse;whiteSpace=wrap;html=1;" vertex="1" parent="Yt4aC9gbm4HXK07xka98-7">
          <mxGeometry x="102.5" y="200" width="95" height="70" as="geometry" />
        </mxCell>
        <mxCell id="Yt4aC9gbm4HXK07xka98-11" value="Leaderboard" style="ellipse;whiteSpace=wrap;html=1;" vertex="1" parent="Yt4aC9gbm4HXK07xka98-7">
          <mxGeometry x="100" y="310" width="100" height="70" as="geometry" />
        </mxCell>
        <mxCell id="Yt4aC9gbm4HXK07xka98-12" value="Django" style="shape=umlActor;verticalLabelPosition=bottom;verticalAlign=top;html=1;outlineConnect=0;" vertex="1" parent="1">
          <mxGeometry x="660" y="100" width="30" height="60" as="geometry" />
        </mxCell>
        <mxCell id="Yt4aC9gbm4HXK07xka98-14" value="" style="endArrow=none;html=1;" edge="1" parent="1" source="Yt4aC9gbm4HXK07xka98-2" target="Yt4aC9gbm4HXK07xka98-8">
          <mxGeometry width="50" height="50" relative="1" as="geometry">
            <mxPoint x="190" y="170" as="sourcePoint" />
            <mxPoint x="240" y="120" as="targetPoint" />
          </mxGeometry>
        </mxCell>
        <mxCell id="Yt4aC9gbm4HXK07xka98-15" value="" style="endArrow=none;html=1;" edge="1" parent="1" source="Yt4aC9gbm4HXK07xka98-2" target="Yt4aC9gbm4HXK07xka98-9">
          <mxGeometry width="50" height="50" relative="1" as="geometry">
            <mxPoint x="180" y="131.875" as="sourcePoint" />
            <mxPoint x="321.09756097560967" y="149.5121951219512" as="targetPoint" />
          </mxGeometry>
        </mxCell>
        <mxCell id="Yt4aC9gbm4HXK07xka98-16" value="" style="endArrow=none;html=1;" edge="1" parent="1" source="Yt4aC9gbm4HXK07xka98-2" target="Yt4aC9gbm4HXK07xka98-10">
          <mxGeometry width="50" height="50" relative="1" as="geometry">
            <mxPoint x="190" y="141.875" as="sourcePoint" />
            <mxPoint x="331.09756097560967" y="159.5121951219512" as="targetPoint" />
          </mxGeometry>
        </mxCell>
        <mxCell id="Yt4aC9gbm4HXK07xka98-17" value="" style="endArrow=none;html=1;" edge="1" parent="1" source="Yt4aC9gbm4HXK07xka98-8" target="Yt4aC9gbm4HXK07xka98-12">
          <mxGeometry width="50" height="50" relative="1" as="geometry">
            <mxPoint x="548.9" y="250.005" as="sourcePoint" />
            <mxPoint x="689.9975609756096" y="267.6421951219512" as="targetPoint" />
          </mxGeometry>
        </mxCell>
        <mxCell id="Yt4aC9gbm4HXK07xka98-18" value="" style="endArrow=none;html=1;" edge="1" parent="1" source="Yt4aC9gbm4HXK07xka98-2" target="Yt4aC9gbm4HXK07xka98-11">
          <mxGeometry width="50" height="50" relative="1" as="geometry">
            <mxPoint x="210" y="161.875" as="sourcePoint" />
            <mxPoint x="351.09756097560967" y="179.5121951219512" as="targetPoint" />
          </mxGeometry>
        </mxCell>
        <mxCell id="Yt4aC9gbm4HXK07xka98-20" value="" style="endArrow=none;html=1;" edge="1" parent="1" source="Yt4aC9gbm4HXK07xka98-9" target="Yt4aC9gbm4HXK07xka98-12">
          <mxGeometry width="50" height="50" relative="1" as="geometry">
            <mxPoint x="220" y="171.875" as="sourcePoint" />
            <mxPoint x="361.09756097560967" y="189.5121951219512" as="targetPoint" />
          </mxGeometry>
        </mxCell>
        <mxCell id="Yt4aC9gbm4HXK07xka98-22" value="" style="endArrow=none;html=1;" edge="1" parent="1" source="Yt4aC9gbm4HXK07xka98-11" target="Yt4aC9gbm4HXK07xka98-12">
          <mxGeometry width="50" height="50" relative="1" as="geometry">
            <mxPoint x="240" y="191.875" as="sourcePoint" />
            <mxPoint x="381.09756097560967" y="209.5121951219512" as="targetPoint" />
          </mxGeometry>
        </mxCell>
      </root>
    </mxGraphModel>
  </diagram>
</mxfile>
